<svg xmlns="http://www.w3.org/2000/svg" viewBox="0 0 250 68">
    <defs>
        <linearGradient id="linear-gradient" x1="11.389" y1="6.372" x2="36.972" y2="39.08" gradientUnits="userSpaceOnUse">
            <stop offset="0" stop-color="#fff" stop-opacity="0"/>
            <stop offset=".349" stop-color="#cdcccc" stop-opacity=".227"/>
            <stop offset=".889" stop-color="#454142" stop-opacity=".847"/>
            <stop offset="1" stop-color="#231f20"/>
        </linearGradient>
        <style>
            .cls-2{fill:#231f20}.cls-6{fill:#4197cb}
        </style>
    </defs>
    <g style="isolation:isolate">
        <g id="Layer_1" data-name="Layer 1">
            <path class="cls-2" d="M89.249 43.208v.244c0 1.464 2.001 3.466 6.444 3.466 3.662 0 4.834-1.22 4.834-2.343 0-1.611-1.904-2.588-6.494-4.15-6.054-2.002-14.012-4.931-14.012-12.792 0-7.275 6.2-11.815 14.891-11.815 8.886 0 15.575 4.735 15.575 12.303v.537h-9.52v-.342c0-1.855-1.905-4.052-5.86-4.052-3.32 0-4.638 1.318-4.638 2.588 0 1.513 1.758 2.294 6.299 3.857 5.272 1.855 14.256 4.98 14.256 13.329 0 7.421-6.445 11.327-15.135 11.327-9.13 0-16.161-4.248-16.161-11.718v-.44ZM122.694 16.55h16.795c10.107 0 14.94 6.933 14.94 14.598 0 8.056-4.833 14.843-14.94 14.843h-7.03v8.641h-9.765Zm9.765 8.886v11.669h6.493c4.101 0 5.615-2.54 5.615-5.908 0-3.027-1.514-5.761-5.615-5.761ZM165.513 16.55h17.674c11.913 0 18.016 8.69 18.016 19.041 0 10.4-6.103 19.041-18.016 19.041h-17.674Zm9.765 9.472V45.21h7.177c5.81 0 8.886-3.906 8.886-9.619s-3.076-9.57-8.886-9.57ZM244.707 16.55l-12.792 18.944L245 54.632h-11.864l-7.08-10.448-7.03 10.448h-11.864l13.084-19.138-12.792-18.944h11.523l7.08 10.4 7.128-10.4Z"/>
            <path style="fill:none" d="m17.855 49.983 31.063-30.998H17.855v30.998z"/>
            <path style="fill:#00416b" d="M17.855 18.985h31.063L61.691 6.13H5v56.627l12.855-12.774V18.985z"/>
            <path style="opacity:.8;mix-blend-mode:multiply;fill:url(#linear-gradient)" d="M17.855 18.985h31.063L61.691 6.13H5v56.627l12.855-12.774V18.985z"/>
            <path class="cls-6" d="M48.918 18.985 17.855 49.983 5 62.772h18.726l11.403-11.585V36.259h14.99l11.524-11.474V6.064L48.918 18.985z"/>
            <path class="cls-6" d="M38.343 39.472v23.3h23.3v-23.3h-23.3z"/>
        </g>
    </g>
</svg>
